I hope these are not dupes of another upload - I don't think so - But they are very good so I had to share...

AUDIO is ENGLISH and RUSSIAN
SUBS are in ENGLISH and RUSSIA
COMMENTARY is in ENGLISH
VIDEO is 1280 x 720
and CHAPTERS too ;-)

More detailed below -&gt;

Format                                   : Matroska
Format version                           : Version 2
File size                                : 1.55 GiB
Duration                                 : 43mn 40s
Overall bit rate                         : 5 071 Kbps
Movie name                               : Stargate: Atlantis (2004) S01E19 - The Siege. Part 1 @ - PGor -
Encoded date                             : UTC 2011-01-20 18:47:32
Writing application                      : mkvmerge v3.1.0 ('Happy up here') built on Jan 19 2010 12:09:24
Writing library                          : libebml v0.7.9 + libmatroska v0.8.1

Video
ID                                       : 1
Format                                   : AVC
Format/Info                              : Advanced Video Codec
Format profile                           : High@L3.1
Format settings, CABAC                   : No
Format settings, ReFrames                : 2 frames
Codec ID                                 : V_MPEG4/ISO/AVC
Duration                                 : 43mn 40s
Bit rate                                 : 3 850 Kbps
Width                                    : 1 280 pixels
Height                                   : 720 pixels
Display aspect ratio                     : 16:9
Frame rate                               : 23.976 fps
Color space                              : YUV
Chroma subsampling                       : 4:2:0
Bit depth                                : 8 bits
Scan type                                : Progressive
Bits/(Pixel*Frame)                       : 0.174
Stream size                              : 1.17 GiB (76%)
Title                                    : Stargate: Atlantis (2004) S01E19 - The Siege. Part 1 @ - PGor -
Language                                 : English
Default                                  : Yes
Forced                                   : Yes
Color primaries                          : BT.709-5, BT.1361, IEC 61966-2-4, SMPTE RP177
Transfer characteristics                 : BT.709-5, BT.1361
Matrix coefficients                      : BT.709-5, BT.1361, IEC 61966-2-4 709, SMPTE RP177

Audio #1
ID                                       : 2
Format                                   : AC-3
Format/Info                              : Audio Coding 3
Mode extension                           : CM (complete main)
Format settings, Endianness              : Big
Codec ID                                 : A_AC3
Duration                                 : 43mn 40s
Bit rate mode                            : Constant
Bit rate                                 : 448 Kbps
Channel(s)                               : 6 channels
Channel positions                        : Front: L C R, Side: L R, LFE
Sampling rate                            : 48.0 KHz
Bit depth                                : 16 bits
Compression mode                         : Lossy
Stream size                              : 140 MiB (9%)
Title                                    : Dolby Digital 5.1
Language                                 : Russian
Default                                  : Yes
Forced                                   : Yes

Audio #2
ID                                       : 3
Format                                   : AC-3
Format/Info                              : Audio Coding 3
Mode extension                           : CM (complete main)
Format settings, Endianness              : Big
Codec ID                                 : A_AC3
Duration                                 : 43mn 40s
Bit rate mode                            : Constant
Bit rate                                 : 448 Kbps
Channel(s)                               : 6 channels
Channel positions                        : Front: L C R, Side: L R, LFE
Sampling rate                            : 48.0 KHz
Bit depth                                : 16 bits
Compression mode                         : Lossy
Stream size                              : 140 MiB (9%)
Title                                    : Dolby Digital 5.1
Language                                 : English
Default                                  : No
Forced                                   : No

Audio #3
ID                                       : 4
Format                                   : AC-3
Format/Info                              : Audio Coding 3
Mode extension                           : CM (complete main)
Format settings, Endianness              : Big
Codec ID                                 : A_AC3
Duration                                 : 43mn 40s
Bit rate mode                            : Constant
Bit rate                                 : 224 Kbps
Channel(s)                               : 2 channels
Channel positions                        : Front: L R
Sampling rate                            : 48.0 KHz
Bit depth                                : 16 bits
Compression mode                         : Lossy
Stream size                              : 70.0 MiB (4%)
Title                                    : Dolby Digital 2.0 Commentary
Language                                 : English
Default                                  : No
Forced                                   : No

Text #1
ID                                       : 5
Format                                   : UTF-8
Codec ID                                 : S_TEXT/UTF8
Codec ID/Info                            : UTF-8 Plain Text
Title                                    : Fargate.ru
Language                                 : Russian
Default                                  : No
Forced                                   : No

Text #2
ID                                       : 6
Format                                   : UTF-8
Codec ID                                 : S_TEXT/UTF8
Codec ID/Info                            : UTF-8 Plain Text
Language                                 : English
Default                                  : No
Forced                                   : No

Menu
00:00:00.000                             : en:Chapter 1
00:03:09.823                             : en:Chapter 2
00:04:09.916                             : en:Chapter 3
00:43:02.713                             : en:Chapter 4
00:43:40.384                             : en:Chapter 5